# xmcd
#
# Track frame offsets:
#	150
#	13010
#	30885
#	58835
#	72152
#	85187
#
# Disc length: 1232 seconds
#
# Revision: 1
# Processed by: cddbd v1.5.1PL0 Copyright (c) Steve Scherf et al.
# Submitted via: CDex 1.50Beta5
#
DISCID=4104ce06
DTITLE=惑星 - Sadpunk
DYEAR=2003
DGENRE=Rock
TTITLE0=狂った太陽
TTITLE1=青い光
TTITLE2=ヴェルヴェット
TTITLE3=Baddafly
TTITLE4=8
TTITLE5=魂、すり減らせ！！
EXTD=
EXTT0=
EXTT1=
EXTT2=
EXTT3=
EXTT4=
EXTT5=
PLAYORDER=
